<?xml version="1.0" ?><!DOCTYPE svg  PUBLIC '-//W3C//DTD SVG 1.1//EN'  'http://www.w3.org/Graphics/SVG/1.1/DTD/svg11.dtd'><svg height="512px" style="enable-background:new 0 0 512 512;" version="1.1" viewBox="0 0 512 512" width="512px" xml:space="preserve" xmlns="http://www.w3.org/2000/svg" xmlns:xlink="http://www.w3.org/1999/xlink"><g id="_x31_57_x2C__Twitter_x2C__Location_x2C__Map"><g id="XMLID_5063_"><g id="XMLID_6732_"><g><g><path d="M256.08,56c84.87,0,153.81,68.94,153.81,153.96c0,77.06-87.02,195.03-153.2,246.04       c-85.33-69.24-154.58-167.75-154.58-246.04C102.11,124.94,171.05,56,256.08,56z M330.87,206.8       c0-41.34-33.521-74.86-74.87-74.86c-41.35,0-74.86,33.52-74.86,74.86c0,41.35,33.51,74.87,74.86,74.87       C297.35,281.67,330.87,248.15,330.87,206.8z" style="fill:#FF7979;"/></g></g><g><g><path d="M256,291.67c-46.792,0-84.86-38.073-84.86-84.87c0-46.792,38.068-84.86,84.86-84.86c46.798,0,84.87,38.068,84.87,84.86       C340.87,253.597,302.798,291.67,256,291.67z M256,141.94c-35.764,0-64.86,29.096-64.86,64.86c0,35.77,29.096,64.87,64.86,64.87       c35.77,0,64.87-29.101,64.87-64.87C320.87,171.036,291.77,141.94,256,141.94z"/></g><g><path d="M256.69,466c-2.235,0-4.467-0.746-6.301-2.234c-43.852-35.583-83.405-78.891-111.374-121.944       C108.33,294.586,92.11,248.989,92.11,209.96C92.11,119.552,165.667,46,256.08,46c90.325,0,163.81,73.552,163.81,163.96       c0,36.966-18.978,86.08-53.436,138.297c-30.08,45.58-68.831,88.818-103.659,115.663C260.994,465.309,258.841,466,256.69,466z        M256.08,66c-79.385,0-143.97,64.58-143.97,143.96c0,67.695,57.873,160.65,144.696,233.182       C324.356,387.99,399.89,277.181,399.89,209.96C399.89,130.58,335.377,66,256.08,66z"/></g></g></g></g></g><g id="Layer_1"/></svg>