<svg width="1440" height="574" viewBox="0 0 1440 574" fill="none" xmlns="http://www.w3.org/2000/svg">
<rect width="1440" height="574" fill="white"/>
<path d="M75.2998 292.097V89.9482H119.904V312.312C119.904 328.278 120.344 339.704 121.223 346.589C122.102 353.327 123.64 358.527 125.837 362.189C130.524 370.832 137.263 377.351 146.052 381.745C154.987 386.14 165.754 388.337 178.352 388.337C191.096 388.337 201.862 386.14 210.651 381.745C219.44 377.351 226.252 370.832 231.086 362.189C233.283 358.527 234.821 353.327 235.7 346.589C236.579 339.851 237.019 328.571 237.019 312.751V89.9482H281.403V292.097C281.403 325.642 279.279 349.519 275.031 363.728C270.93 377.79 263.752 389.436 253.498 398.664C243.83 407.307 232.771 413.752 220.319 418C207.868 422.248 193.879 424.372 178.352 424.372C162.971 424.372 149.055 422.248 136.604 418C124.152 413.752 113.02 407.307 103.205 398.664C93.0977 389.582 85.9199 377.863 81.6719 363.508C77.4238 349.006 75.2998 325.202 75.2998 292.097ZM672.956 126.423V249.689H724.372C744.88 249.689 760.847 244.27 772.272 233.43C783.845 222.59 789.631 207.429 789.631 187.946C789.631 168.464 783.918 153.376 772.492 142.683C761.066 131.843 745.026 126.423 724.372 126.423H672.956ZM628.571 89.9482H724.372C760.993 89.9482 788.752 98.2979 807.648 114.997C826.545 131.55 835.993 155.866 835.993 187.946C835.993 220.319 826.545 244.782 807.648 261.335C788.898 277.888 761.14 286.164 724.372 286.164H672.956V418H628.571V89.9482ZM1326.42 254.304C1326.42 206.11 1321.44 171.687 1311.48 151.032C1301.67 130.378 1285.48 120.051 1262.92 120.051C1240.51 120.051 1224.32 130.378 1214.36 151.032C1204.55 171.687 1199.64 206.11 1199.64 254.304C1199.64 302.351 1204.55 336.701 1214.36 357.355C1224.32 378.01 1240.51 388.337 1262.92 388.337C1285.48 388.337 1301.67 378.083 1311.48 357.575C1321.44 336.921 1326.42 302.497 1326.42 254.304ZM1372.79 254.304C1372.79 311.433 1363.7 354.06 1345.54 382.185C1327.52 410.31 1299.98 424.372 1262.92 424.372C1225.86 424.372 1198.32 410.383 1180.3 382.404C1162.29 354.426 1153.28 311.726 1153.28 254.304C1153.28 197.028 1162.29 154.328 1180.3 126.203C1198.47 98.0781 1226.01 84.0156 1262.92 84.0156C1299.98 84.0156 1327.52 98.0781 1345.54 126.203C1363.7 154.328 1372.79 197.028 1372.79 254.304Z" fill="black"/>
<path d="M0 292H1440V338H0V292Z" fill="#FFEEE7"/>
<path d="M207.207 315.074V325.758H211.875C214.167 325.758 215.801 325.361 216.777 324.566C217.754 323.759 218.242 322.438 218.242 320.602C218.242 318.701 217.728 317.307 216.699 316.422C215.671 315.523 214.062 315.074 211.875 315.074H207.207ZM207.207 303.082V311.871H211.797C213.698 311.871 215.072 311.507 215.918 310.777C216.777 310.048 217.207 308.87 217.207 307.242C217.207 305.771 216.784 304.71 215.938 304.059C215.104 303.408 213.724 303.082 211.797 303.082H207.207ZM203.242 299.84H211.875C214.857 299.84 217.155 300.484 218.77 301.773C220.384 303.062 221.191 304.885 221.191 307.242C221.191 309.026 220.762 310.432 219.902 311.461C219.056 312.49 217.78 313.134 216.074 313.395C217.988 313.681 219.486 314.501 220.566 315.855C221.66 317.197 222.207 318.909 222.207 320.992C222.207 323.635 221.341 325.634 219.609 326.988C217.878 328.329 215.299 329 211.875 329H203.242V299.84ZM324.733 303.316L320.573 318.238H328.893L324.733 303.316ZM322.35 299.84H327.135L336.061 329H331.979L329.83 321.402H319.616L317.506 329H313.424L322.35 299.84ZM445.169 300.836V304.84C443.971 304.072 442.766 303.492 441.555 303.102C440.358 302.711 439.147 302.516 437.923 302.516C436.061 302.516 434.589 302.952 433.509 303.824C432.428 304.684 431.887 305.849 431.887 307.32C431.887 308.609 432.239 309.592 432.942 310.27C433.658 310.947 434.986 311.513 436.927 311.969L438.997 312.438C441.731 313.076 443.723 314.078 444.973 315.445C446.223 316.812 446.848 318.674 446.848 321.031C446.848 323.805 445.989 325.921 444.27 327.379C442.552 328.837 440.052 329.566 436.77 329.566C435.403 329.566 434.029 329.417 432.649 329.117C431.269 328.831 429.882 328.395 428.489 327.809V323.609C429.986 324.56 431.399 325.257 432.727 325.699C434.068 326.142 435.416 326.363 436.77 326.363C438.762 326.363 440.312 325.921 441.419 325.035C442.526 324.137 443.079 322.887 443.079 321.285C443.079 319.827 442.695 318.714 441.927 317.945C441.171 317.177 439.85 316.585 437.962 316.168L435.852 315.68C433.144 315.068 431.178 314.143 429.954 312.906C428.73 311.669 428.118 310.009 428.118 307.926C428.118 305.322 428.99 303.238 430.735 301.676C432.493 300.1 434.824 299.312 437.727 299.312C438.847 299.312 440.026 299.443 441.262 299.703C442.499 299.951 443.802 300.328 445.169 300.836ZM539.023 299.84H561.269V303.16H552.148V329H548.183V303.16H539.023V299.84ZM654.732 299.84H670.923V303.16H664.81V325.68H670.923V329H654.732V325.68H660.845V303.16H654.732V299.84ZM772.023 325.758C775.344 325.758 777.661 324.944 778.977 323.316C780.292 321.676 780.949 318.72 780.949 314.449C780.949 310.139 780.292 307.171 778.977 305.543C777.674 303.902 775.357 303.082 772.023 303.082H770.148V325.758H772.023ZM772.102 299.84C776.555 299.84 779.836 301.025 781.945 303.395C784.055 305.764 785.109 309.449 785.109 314.449C785.109 319.423 784.055 323.095 781.945 325.465C779.836 327.822 776.555 329 772.102 329H766.184V299.84H772.102ZM893.885 314.449C893.885 310.165 893.442 307.105 892.557 305.27C891.685 303.434 890.246 302.516 888.241 302.516C886.248 302.516 884.81 303.434 883.924 305.27C883.052 307.105 882.616 310.165 882.616 314.449C882.616 318.72 883.052 321.773 883.924 323.609C884.81 325.445 886.248 326.363 888.241 326.363C890.246 326.363 891.685 325.452 892.557 323.629C893.442 321.793 893.885 318.733 893.885 314.449ZM898.006 314.449C898.006 319.527 897.199 323.316 895.584 325.816C893.983 328.316 891.535 329.566 888.241 329.566C884.946 329.566 882.498 328.323 880.897 325.836C879.295 323.349 878.495 319.553 878.495 314.449C878.495 309.358 879.295 305.562 880.897 303.062C882.511 300.562 884.959 299.312 888.241 299.312C891.535 299.312 893.983 300.562 895.584 303.062C897.199 305.562 898.006 309.358 898.006 314.449ZM1003.75 315.23C1004.77 315.491 1005.64 315.986 1006.35 316.715C1007.07 317.431 1007.96 318.87 1009.03 321.031L1012.99 329H1008.75L1005.28 321.637C1004.28 319.54 1003.37 318.193 1002.56 317.594C1001.77 316.982 1000.73 316.676 999.438 316.676H995.669V329H991.704V299.84H999.829C1003.03 299.84 1005.49 300.562 1007.19 302.008C1008.9 303.453 1009.75 305.543 1009.75 308.277C1009.75 310.204 1009.22 311.78 1008.17 313.004C1007.13 314.215 1005.66 314.957 1003.75 315.23ZM995.669 303.082V313.434H999.985C1001.87 313.434 1003.28 313.01 1004.2 312.164C1005.13 311.318 1005.59 310.022 1005.59 308.277C1005.59 306.598 1005.1 305.315 1004.11 304.43C1003.13 303.531 1001.7 303.082 999.829 303.082H995.669ZM1105.46 299.84H1122.76V303.16H1109.41V311.793H1122.18V315.113H1109.41V325.68H1123.14V329H1105.46V299.84ZM1234.08 300.836V304.84C1232.88 304.072 1231.68 303.492 1230.47 303.102C1229.27 302.711 1228.06 302.516 1226.83 302.516C1224.97 302.516 1223.5 302.952 1222.42 303.824C1221.34 304.684 1220.8 305.849 1220.8 307.32C1220.8 308.609 1221.15 309.592 1221.85 310.27C1222.57 310.947 1223.9 311.513 1225.84 311.969L1227.91 312.438C1230.64 313.076 1232.63 314.078 1233.88 315.445C1235.13 316.812 1235.76 318.674 1235.76 321.031C1235.76 323.805 1234.9 325.921 1233.18 327.379C1231.46 328.837 1228.96 329.566 1225.68 329.566C1224.31 329.566 1222.94 329.417 1221.56 329.117C1220.18 328.831 1218.79 328.395 1217.4 327.809V323.609C1218.9 324.56 1220.31 325.257 1221.64 325.699C1222.98 326.142 1224.33 326.363 1225.68 326.363C1227.67 326.363 1229.22 325.921 1230.33 325.035C1231.44 324.137 1231.99 322.887 1231.99 321.285C1231.99 319.827 1231.61 318.714 1230.84 317.945C1230.08 317.177 1228.76 316.585 1226.87 316.168L1224.76 315.68C1222.05 315.068 1220.09 314.143 1218.86 312.906C1217.64 311.669 1217.03 310.009 1217.03 307.926C1217.03 305.322 1217.9 303.238 1219.65 301.676C1221.4 300.1 1223.73 299.312 1226.64 299.312C1227.76 299.312 1228.94 299.443 1230.17 299.703C1231.41 299.951 1232.71 300.328 1234.08 300.836Z" fill="black"/>
<path d="M203.589 498.011V475.55H208.545V500.257C208.545 502.031 208.594 503.3 208.691 504.065C208.789 504.814 208.96 505.392 209.204 505.799C209.725 506.759 210.474 507.483 211.45 507.972C212.443 508.46 213.639 508.704 215.039 508.704C216.455 508.704 217.651 508.46 218.628 507.972C219.604 507.483 220.361 506.759 220.898 505.799C221.143 505.392 221.313 504.814 221.411 504.065C221.509 503.317 221.558 502.063 221.558 500.306V475.55H226.489V498.011C226.489 501.738 226.253 504.391 225.781 505.97C225.326 507.532 224.528 508.826 223.389 509.852C222.314 510.812 221.086 511.528 219.702 512C218.319 512.472 216.764 512.708 215.039 512.708C213.33 512.708 211.784 512.472 210.4 512C209.017 511.528 207.78 510.812 206.689 509.852C205.566 508.842 204.769 507.54 204.297 505.945C203.825 504.334 203.589 501.689 203.589 498.011ZM280.786 495.057V512H276.27V495.057C276.27 492.599 275.838 490.792 274.976 489.637C274.113 488.481 272.762 487.903 270.923 487.903C268.823 487.903 267.204 488.652 266.064 490.149C264.941 491.631 264.38 493.763 264.38 496.546V512H259.888V484.656H264.38V488.758C265.177 487.195 266.26 486.015 267.627 485.218C268.994 484.404 270.614 483.997 272.485 483.997C275.269 483.997 277.344 484.917 278.711 486.756C280.094 488.579 280.786 491.346 280.786 495.057ZM375.122 479.603V493.299H380.835C383.114 493.299 384.888 492.697 386.157 491.492C387.443 490.288 388.086 488.603 388.086 486.438C388.086 484.274 387.451 482.597 386.182 481.409C384.912 480.205 383.13 479.603 380.835 479.603H375.122ZM370.19 475.55H380.835C384.904 475.55 387.988 476.478 390.088 478.333C392.188 480.172 393.237 482.874 393.237 486.438C393.237 490.035 392.188 492.754 390.088 494.593C388.005 496.432 384.92 497.352 380.835 497.352H375.122V512H370.19V475.55ZM426.758 484.656H438.257V508.509H447.168V512H424.854V508.509H433.765V488.147H426.758V484.656ZM433.765 474.012H438.257V479.7H433.765V474.012ZM501.538 510.608C500.334 511.308 499.089 511.829 497.803 512.171C496.533 512.529 495.231 512.708 493.896 512.708C489.665 512.708 486.353 511.438 483.96 508.899C481.584 506.36 480.396 502.845 480.396 498.353C480.396 493.86 481.584 490.345 483.96 487.806C486.353 485.267 489.665 483.997 493.896 483.997C495.215 483.997 496.501 484.168 497.754 484.51C499.007 484.852 500.269 485.381 501.538 486.097V490.809C500.35 489.751 499.154 488.986 497.949 488.514C496.761 488.042 495.41 487.806 493.896 487.806C491.081 487.806 488.916 488.717 487.402 490.54C485.889 492.363 485.132 494.967 485.132 498.353C485.132 501.722 485.889 504.326 487.402 506.165C488.932 507.988 491.097 508.899 493.896 508.899C495.459 508.899 496.859 508.663 498.096 508.191C499.333 507.703 500.48 506.954 501.538 505.945V510.608ZM547.9 498.255H546.411C543.791 498.255 541.813 498.719 540.479 499.646C539.16 500.558 538.501 501.925 538.501 503.748C538.501 505.392 538.997 506.67 539.99 507.581C540.983 508.493 542.358 508.948 544.116 508.948C546.59 508.948 548.535 508.094 549.951 506.385C551.367 504.66 552.083 502.283 552.1 499.256V498.255H547.9ZM556.616 496.399V512H552.1V507.947C551.139 509.575 549.927 510.779 548.462 511.561C547.013 512.326 545.247 512.708 543.164 512.708C540.381 512.708 538.159 511.927 536.499 510.364C534.839 508.785 534.009 506.678 534.009 504.041C534.009 500.997 535.026 498.686 537.061 497.107C539.111 495.529 542.114 494.739 546.069 494.739H552.1V494.031C552.083 491.85 551.53 490.271 550.439 489.295C549.349 488.302 547.607 487.806 545.215 487.806C543.685 487.806 542.139 488.025 540.576 488.465C539.014 488.904 537.492 489.547 536.011 490.394V485.901C537.671 485.267 539.258 484.795 540.771 484.485C542.301 484.16 543.783 483.997 545.215 483.997C547.477 483.997 549.406 484.331 551.001 484.998C552.612 485.665 553.914 486.666 554.907 488.001C555.526 488.815 555.965 489.824 556.226 491.028C556.486 492.216 556.616 494.007 556.616 496.399ZM609.644 485.608V490.003C608.358 489.254 607.064 488.693 605.762 488.318C604.46 487.944 603.133 487.757 601.782 487.757C599.748 487.757 598.226 488.09 597.217 488.758C596.224 489.409 595.728 490.41 595.728 491.761C595.728 492.981 596.102 493.893 596.851 494.495C597.599 495.097 599.463 495.683 602.441 496.253L604.248 496.595C606.478 497.018 608.162 497.864 609.302 499.134C610.457 500.403 611.035 502.055 611.035 504.09C611.035 506.792 610.075 508.908 608.154 510.438C606.234 511.951 603.564 512.708 600.146 512.708C598.796 512.708 597.38 512.562 595.898 512.269C594.417 511.992 592.814 511.569 591.089 510.999V506.36C592.765 507.223 594.368 507.874 595.898 508.313C597.428 508.737 598.877 508.948 600.244 508.948C602.23 508.948 603.768 508.549 604.858 507.752C605.949 506.938 606.494 505.807 606.494 504.358C606.494 502.275 604.5 500.835 600.513 500.037L600.317 499.988L598.633 499.646C596.045 499.142 594.157 498.296 592.969 497.107C591.781 495.903 591.187 494.267 591.187 492.2C591.187 489.58 592.074 487.562 593.848 486.146C595.622 484.713 598.153 483.997 601.44 483.997C602.905 483.997 604.313 484.135 605.664 484.412C607.015 484.673 608.341 485.071 609.644 485.608ZM664.771 485.608V490.003C663.485 489.254 662.191 488.693 660.889 488.318C659.587 487.944 658.26 487.757 656.909 487.757C654.875 487.757 653.353 488.09 652.344 488.758C651.351 489.409 650.854 490.41 650.854 491.761C650.854 492.981 651.229 493.893 651.978 494.495C652.726 495.097 654.59 495.683 657.568 496.253L659.375 496.595C661.605 497.018 663.289 497.864 664.429 499.134C665.584 500.403 666.162 502.055 666.162 504.09C666.162 506.792 665.202 508.908 663.281 510.438C661.361 511.951 658.691 512.708 655.273 512.708C653.923 512.708 652.507 512.562 651.025 512.269C649.544 511.992 647.941 511.569 646.216 510.999V506.36C647.892 507.223 649.495 507.874 651.025 508.313C652.555 508.737 654.004 508.948 655.371 508.948C657.357 508.948 658.895 508.549 659.985 507.752C661.076 506.938 661.621 505.807 661.621 504.358C661.621 502.275 659.627 500.835 655.64 500.037L655.444 499.988L653.76 499.646C651.172 499.142 649.284 498.296 648.096 497.107C646.908 495.903 646.313 494.267 646.313 492.2C646.313 489.58 647.201 487.562 648.975 486.146C650.749 484.713 653.28 483.997 656.567 483.997C658.032 483.997 659.44 484.135 660.791 484.412C662.142 484.673 663.468 485.071 664.771 485.608ZM711.182 487.806C708.903 487.806 707.178 488.693 706.006 490.467C704.834 492.241 704.248 494.869 704.248 498.353C704.248 501.819 704.834 504.448 706.006 506.238C707.178 508.012 708.903 508.899 711.182 508.899C713.477 508.899 715.21 508.012 716.382 506.238C717.554 504.448 718.14 501.819 718.14 498.353C718.14 494.869 717.554 492.241 716.382 490.467C715.21 488.693 713.477 487.806 711.182 487.806ZM711.182 483.997C714.974 483.997 717.871 485.226 719.873 487.684C721.891 490.141 722.9 493.698 722.9 498.353C722.9 503.024 721.899 506.588 719.897 509.046C717.896 511.487 714.99 512.708 711.182 512.708C707.389 512.708 704.492 511.487 702.49 509.046C700.488 506.588 699.487 503.024 699.487 498.353C699.487 493.698 700.488 490.141 702.49 487.684C704.492 485.226 707.389 483.997 711.182 483.997ZM828.491 493.812C828.491 488.457 827.938 484.632 826.831 482.337C825.741 480.042 823.942 478.895 821.436 478.895C818.945 478.895 817.147 480.042 816.04 482.337C814.95 484.632 814.404 488.457 814.404 493.812C814.404 499.15 814.95 502.967 816.04 505.262C817.147 507.557 818.945 508.704 821.436 508.704C823.942 508.704 825.741 507.565 826.831 505.286C827.938 502.991 828.491 499.166 828.491 493.812ZM833.643 493.812C833.643 500.159 832.633 504.896 830.615 508.021C828.613 511.146 825.553 512.708 821.436 512.708C817.318 512.708 814.258 511.154 812.256 508.045C810.254 504.936 809.253 500.192 809.253 493.812C809.253 487.448 810.254 482.703 812.256 479.578C814.274 476.453 817.334 474.891 821.436 474.891C825.553 474.891 828.613 476.453 830.615 479.578C832.633 482.703 833.643 487.448 833.643 493.812ZM889.722 490.296C888.761 489.547 887.785 489.002 886.792 488.66C885.799 488.318 884.709 488.147 883.521 488.147C880.721 488.147 878.581 489.026 877.1 490.784C875.618 492.542 874.878 495.081 874.878 498.401V512H870.361V484.656H874.878V490.003C875.627 488.066 876.774 486.585 878.32 485.56C879.883 484.518 881.73 483.997 883.862 483.997C884.969 483.997 886.003 484.135 886.963 484.412C887.923 484.689 888.843 485.12 889.722 485.706V490.296ZM922.9 484.656H934.399V508.509H943.311V512H920.996V508.509H929.907V488.147H922.9V484.656ZM929.907 474.012H934.399V479.7H929.907V474.012ZM992.725 498.108C992.725 494.739 992.171 492.184 991.064 490.442C989.974 488.685 988.379 487.806 986.279 487.806C984.082 487.806 982.406 488.685 981.25 490.442C980.094 492.184 979.517 494.739 979.517 498.108C979.517 501.478 980.094 504.049 981.25 505.823C982.422 507.581 984.115 508.46 986.328 508.46C988.395 508.46 989.974 507.573 991.064 505.799C992.171 504.025 992.725 501.461 992.725 498.108ZM997.217 510.242C997.217 514.344 996.248 517.452 994.312 519.568C992.375 521.684 989.526 522.742 985.767 522.742C984.53 522.742 983.236 522.628 981.885 522.4C980.534 522.173 979.183 521.839 977.832 521.399V516.956C979.427 517.705 980.876 518.258 982.178 518.616C983.48 518.974 984.676 519.153 985.767 519.153C988.192 519.153 989.958 518.494 991.064 517.176C992.171 515.857 992.725 513.766 992.725 510.901V510.706V507.654C992.008 509.184 991.032 510.324 989.795 511.072C988.558 511.821 987.052 512.195 985.278 512.195C982.088 512.195 979.541 510.918 977.637 508.362C975.732 505.807 974.78 502.389 974.78 498.108C974.78 493.812 975.732 490.385 977.637 487.83C979.541 485.275 982.088 483.997 985.278 483.997C987.036 483.997 988.525 484.347 989.746 485.047C990.967 485.747 991.96 486.829 992.725 488.294V484.754H997.217V510.242ZM1033.15 484.656H1044.65V508.509H1053.56V512H1031.25V508.509H1040.16V488.147H1033.15V484.656ZM1040.16 474.012H1044.65V479.7H1040.16V474.012ZM1107.69 495.057V512H1103.17V495.057C1103.17 492.599 1102.74 490.792 1101.88 489.637C1101.02 488.481 1099.67 487.903 1097.83 487.903C1095.73 487.903 1094.11 488.652 1092.97 490.149C1091.85 491.631 1091.28 493.763 1091.28 496.546V512H1086.79V484.656H1091.28V488.758C1092.08 487.195 1093.16 486.015 1094.53 485.218C1095.9 484.404 1097.52 483.997 1099.39 483.997C1102.17 483.997 1104.25 484.917 1105.62 486.756C1107 488.579 1107.69 491.346 1107.69 495.057ZM1154.3 498.255H1152.81C1150.19 498.255 1148.21 498.719 1146.88 499.646C1145.56 500.558 1144.9 501.925 1144.9 503.748C1144.9 505.392 1145.39 506.67 1146.39 507.581C1147.38 508.493 1148.75 508.948 1150.51 508.948C1152.99 508.948 1154.93 508.094 1156.35 506.385C1157.76 504.66 1158.48 502.283 1158.5 499.256V498.255H1154.3ZM1163.01 496.399V512H1158.5V507.947C1157.54 509.575 1156.32 510.779 1154.86 511.561C1153.41 512.326 1151.64 512.708 1149.56 512.708C1146.78 512.708 1144.56 511.927 1142.9 510.364C1141.24 508.785 1140.41 506.678 1140.41 504.041C1140.41 500.997 1141.42 498.686 1143.46 497.107C1145.51 495.529 1148.51 494.739 1152.47 494.739H1158.5V494.031C1158.48 491.85 1157.93 490.271 1156.84 489.295C1155.75 488.302 1154 487.806 1151.61 487.806C1150.08 487.806 1148.54 488.025 1146.97 488.465C1145.41 488.904 1143.89 489.547 1142.41 490.394V485.901C1144.07 485.267 1145.65 484.795 1147.17 484.485C1148.7 484.16 1150.18 483.997 1151.61 483.997C1153.87 483.997 1155.8 484.331 1157.4 484.998C1159.01 485.665 1160.31 486.666 1161.3 488.001C1161.92 488.815 1162.36 489.824 1162.62 491.028C1162.88 492.216 1163.01 494.007 1163.01 496.399ZM1207.89 502.088C1207.89 504.106 1208.25 505.628 1208.98 506.653C1209.73 507.679 1210.83 508.191 1212.28 508.191H1217.53V512H1211.84C1209.16 512 1207.07 511.137 1205.59 509.412C1204.13 507.687 1203.39 505.245 1203.39 502.088V477.259H1196.19V473.743H1207.89V502.088Z" fill="black"/>
</svg>
